# Blender 4.3.2
# www.blender.org
mtllib THUNDER.mtl
o Plane.001
v -1.000000 0.000000 1.000000
v 1.000000 0.000000 1.000000
v -1.000000 0.000000 -1.000000
v 1.000000 0.000000 -1.000000
v -0.493348 0.069375 -0.000000
v 0.493348 0.069375 -0.000000
v -0.488278 16.966583 0.872689
v 0.488278 16.966583 -0.872688
v -0.494061 16.139921 0.869428
v -0.117535 15.295060 0.194539
v -0.000000 14.450199 0.000000
v -0.134337 13.605339 0.183339
v -0.642763 12.760477 0.766066
v -0.714284 11.915617 0.699857
v -0.801474 11.070757 0.598029
v -0.905717 10.225897 0.423884
v -1.593226 9.381036 0.000000
v -2.451082 8.536176 0.000000
v -2.777040 7.691315 -0.000000
v -4.000000 6.846455 -0.000000
v -2.777040 6.001594 -0.000000
v -2.451082 5.156733 -0.000000
v -0.962006 4.311873 -0.000000
v 0.000000 3.467012 -0.000000
v -0.227288 2.622152 -0.000000
v -1.000000 1.777291 -0.000000
v -1.000000 0.932431 -0.000000
v 1.000000 0.932431 -0.000000
v 1.000000 1.777292 -0.000000
v 1.772712 2.622153 -0.000000
v 2.000000 3.467013 -0.000000
v 1.037996 4.311874 -0.000000
v -0.451082 5.156734 -0.000000
v -0.777040 6.001595 -0.000000
v -2.000000 6.846456 -0.000000
v -0.777040 7.691315 -0.000000
v -0.451082 8.536177 0.000000
v 0.406776 9.381037 0.000000
v 0.905716 10.225898 -0.423884
v 0.801474 11.070758 -0.598029
v 0.714283 11.915618 -0.699857
v 0.642762 12.760479 -0.766065
v 1.047750 13.605339 -1.429939
v 1.102183 14.450200 -1.668889
v 0.916700 15.295061 -1.517290
v 0.494060 16.139921 -0.869427
v 0.000000 0.000000 -1.000000
v -0.000000 2.000000 -3.401901
v 0.195090 0.000000 -0.980785
v 0.663678 2.000000 -3.336535
v 0.382683 0.000000 -0.923880
v 1.301851 2.000000 -3.142947
v 0.555570 0.000000 -0.831470
v 1.889995 2.000000 -2.828578
v 0.707107 0.000000 -0.707107
v 2.405508 2.000000 -2.405508
v 0.831470 0.000000 -0.555570
v 2.828578 2.000000 -1.889995
v 0.923880 0.000000 -0.382683
v 3.142947 2.000000 -1.301851
v 0.980785 0.000000 -0.195090
v 3.336535 2.000000 -0.663678
v 1.000000 0.000000 0.000000
v 3.401901 2.000000 -0.000000
v 0.980785 0.000000 0.195090
v 3.336535 2.000000 0.663678
v 0.923880 0.000000 0.382683
v 3.142947 2.000000 1.301851
v 0.831470 0.000000 0.555570
v 2.828578 2.000000 1.889995
v 0.707107 0.000000 0.707107
v 2.405508 2.000000 2.405508
v 0.555570 0.000000 0.831470
v 1.889995 2.000000 2.828578
v 0.382683 0.000000 0.923880
v 1.301851 2.000000 3.142947
v 0.195090 0.000000 0.980785
v 0.663678 2.000000 3.336535
v 0.000000 0.000000 1.000000
v -0.000000 2.000000 3.401901
v -0.195090 0.000000 0.980785
v -0.663678 2.000000 3.336535
v -0.382683 0.000000 0.923880
v -1.301851 2.000000 3.142947
v -0.555570 0.000000 0.831470
v -1.889995 2.000000 2.828578
v -0.707107 0.000000 0.707107
v -2.405508 2.000000 2.405508
v -0.831470 0.000000 0.555570
v -2.828578 2.000000 1.889995
v -0.923880 0.000000 0.382683
v -3.142947 2.000000 1.301851
v -0.980785 0.000000 0.195090
v -3.336535 2.000000 0.663678
v -1.000000 0.000000 0.000000
v -3.401901 2.000000 -0.000000
v -0.980785 0.000000 -0.195090
v -3.336535 2.000000 -0.663678
v -0.923880 0.000000 -0.382683
v -3.142947 2.000000 -1.301851
v -0.831470 0.000000 -0.555570
v -2.828578 2.000000 -1.889995
v -0.707107 0.000000 -0.707107
v -2.405508 2.000000 -2.405508
v -0.555570 0.000000 -0.831470
v -1.889995 2.000000 -2.828578
v -0.382683 0.000000 -0.923880
v -1.301851 2.000000 -3.142947
v -0.195090 0.000000 -0.980785
v -0.663678 2.000000 -3.336535
vn -0.0000 1.0000 -0.0000
vn -0.0000 -0.0000 1.0000
vn 0.8711 -0.0000 0.4912
vn 0.8682 0.0042 0.4962
vn 0.8563 0.0230 0.5159
vn 0.8324 0.0466 0.5523
vn 0.7988 0.0376 0.6004
vn 0.7527 0.0104 0.6583
vn 0.6933 -0.0000 0.7206
vn 0.5844 -0.0000 0.8115
vn 0.3519 -0.0855 0.9321
vn 0.0616 -0.0433 0.9972
vn 0.1568 -0.1101 0.9815
vn 0.4067 -0.0578 0.9118
vn 0.7658 0.0179 0.6428
vn 0.8096 0.0445 0.5852
vn 0.8504 0.0328 0.5251
vn 0.8661 0.0073 0.4998
vn -0.0000 0.7685 0.6399
vn -0.1248 0.7685 0.6276
vn -0.2449 0.7685 0.5912
vn -0.3555 0.7685 0.5320
vn -0.4525 0.7685 0.4525
vn -0.5320 0.7685 0.3555
vn -0.5912 0.7685 0.2449
vn -0.6276 0.7685 0.1248
vn -0.6399 0.7685 -0.0000
vn -0.6276 0.7685 -0.1248
vn -0.5912 0.7685 -0.2449
vn -0.5320 0.7685 -0.3555
vn -0.4525 0.7685 -0.4525
vn -0.3555 0.7685 -0.5320
vn -0.2449 0.7685 -0.5912
vn -0.1248 0.7685 -0.6276
vn -0.0000 0.7685 -0.6399
vn 0.1248 0.7685 -0.6276
vn 0.2449 0.7685 -0.5912
vn 0.3555 0.7685 -0.5320
vn 0.4525 0.7685 -0.4525
vn 0.5320 0.7685 -0.3555
vn 0.5912 0.7685 -0.2449
vn 0.6276 0.7685 -0.1248
vn 0.6399 0.7685 -0.0000
vn 0.6276 0.7685 0.1248
vn 0.5912 0.7685 0.2449
vn 0.5320 0.7685 0.3555
vn 0.4525 0.7685 0.4525
vn 0.3555 0.7685 0.5320
vn 0.2449 0.7685 0.5912
vn 0.1248 0.7685 0.6276
vt 0.000000 0.000000
vt 1.000000 0.000000
vt 1.000000 1.000000
vt 0.000000 1.000000
vt 0.000000 0.951077
vt 1.000000 0.951077
vt 1.000000 0.051077
vt 0.000000 0.051077
vt 1.000000 0.101077
vt 0.000000 0.101077
vt 1.000000 0.151077
vt 0.000000 0.151077
vt 1.000000 0.201077
vt 0.000000 0.201077
vt 1.000000 0.251077
vt 0.000000 0.251077
vt 1.000000 0.301077
vt 0.000000 0.301077
vt 1.000000 0.351077
vt 0.000000 0.351077
vt 1.000000 0.401077
vt 0.000000 0.401077
vt 1.000000 0.451077
vt 0.000000 0.451077
vt 1.000000 0.501077
vt 0.000000 0.501077
vt 1.000000 0.551077
vt 0.000000 0.551077
vt 1.000000 0.601077
vt 0.000000 0.601077
vt 1.000000 0.651077
vt 0.000000 0.651077
vt 1.000000 0.701077
vt 0.000000 0.701077
vt 1.000000 0.751077
vt 0.000000 0.751077
vt 1.000000 0.801077
vt 0.000000 0.801077
vt 1.000000 0.851077
vt 0.000000 0.851077
vt 1.000000 0.901077
vt 0.000000 0.901077
vt 0.968750 0.000000
vt 0.968750 1.000000
vt 0.937500 0.000000
vt 0.937500 1.000000
vt 0.906250 0.000000
vt 0.906250 1.000000
vt 0.875000 0.000000
vt 0.875000 1.000000
vt 0.843750 0.000000
vt 0.843750 1.000000
vt 0.812500 0.000000
vt 0.812500 1.000000
vt 0.781250 0.000000
vt 0.781250 1.000000
vt 0.750000 0.000000
vt 0.750000 1.000000
vt 0.718750 0.000000
vt 0.718750 1.000000
vt 0.687500 0.000000
vt 0.687500 1.000000
vt 0.656250 0.000000
vt 0.656250 1.000000
vt 0.625000 0.000000
vt 0.625000 1.000000
vt 0.593750 0.000000
vt 0.593750 1.000000
vt 0.562500 0.000000
vt 0.562500 1.000000
vt 0.531250 0.000000
vt 0.531250 1.000000
vt 0.500000 0.000000
vt 0.500000 1.000000
vt 0.468750 0.000000
vt 0.468750 1.000000
vt 0.437500 0.000000
vt 0.437500 1.000000
vt 0.406250 0.000000
vt 0.406250 1.000000
vt 0.375000 0.000000
vt 0.375000 1.000000
vt 0.343750 0.000000
vt 0.343750 1.000000
vt 0.312500 0.000000
vt 0.312500 1.000000
vt 0.281250 0.000000
vt 0.281250 1.000000
vt 0.250000 0.000000
vt 0.250000 1.000000
vt 0.218750 0.000000
vt 0.218750 1.000000
vt 0.187500 0.000000
vt 0.187500 1.000000
vt 0.156250 0.000000
vt 0.156250 1.000000
vt 0.125000 0.000000
vt 0.125000 1.000000
vt 0.093750 0.000000
vt 0.093750 1.000000
vt 0.062500 0.000000
vt 0.062500 1.000000
vt 0.031250 0.000000
vt 0.031250 1.000000
s 1
usemtl Material.003
f 1/1/1 2/2/1 4/3/1 3/4/1
usemtl Material.001
f 9/5/4 46/6/18 8/3/3 7/4/3
f 5/1/2 6/2/2 28/7/2 27/8/2
f 27/8/2 28/7/2 29/9/2 26/10/2
f 26/10/2 29/9/2 30/11/2 25/12/2
f 25/12/2 30/11/2 31/13/2 24/14/2
f 24/14/2 31/13/2 32/15/2 23/16/2
f 23/16/2 32/15/2 33/17/2 22/18/2
f 22/18/2 33/17/2 34/19/2 21/20/2
f 21/20/2 34/19/2 35/21/2 20/22/2
f 20/22/2 35/21/2 36/23/2 19/24/2
f 19/24/2 36/23/2 37/25/2 18/26/2
f 18/26/2 37/25/2 38/27/13 17/28/12
f 17/28/12 38/27/13 39/29/14 16/30/11
f 16/30/11 39/29/14 40/31/10 15/32/10
f 15/32/10 40/31/10 41/33/9 14/34/9
f 14/34/9 41/33/9 42/35/15 13/36/8
f 13/36/8 42/35/15 43/37/16 12/38/7
f 12/38/7 43/37/16 44/39/6 11/40/6
f 11/40/6 44/39/6 45/41/17 10/42/5
f 10/42/5 45/41/17 46/6/18 9/5/4
usemtl Material.002
f 47/2/19 49/43/20 50/44/20 48/3/19
f 49/43/20 51/45/21 52/46/21 50/44/20
f 51/45/21 53/47/22 54/48/22 52/46/21
f 53/47/22 55/49/23 56/50/23 54/48/22
f 55/49/23 57/51/24 58/52/24 56/50/23
f 57/51/24 59/53/25 60/54/25 58/52/24
f 59/53/25 61/55/26 62/56/26 60/54/25
f 61/55/26 63/57/27 64/58/27 62/56/26
f 63/57/27 65/59/28 66/60/28 64/58/27
f 65/59/28 67/61/29 68/62/29 66/60/28
f 67/61/29 69/63/30 70/64/30 68/62/29
f 69/63/30 71/65/31 72/66/31 70/64/30
f 71/65/31 73/67/32 74/68/32 72/66/31
f 73/67/32 75/69/33 76/70/33 74/68/32
f 75/69/33 77/71/34 78/72/34 76/70/33
f 77/71/34 79/73/35 80/74/35 78/72/34
f 79/73/35 81/75/36 82/76/36 80/74/35
f 81/75/36 83/77/37 84/78/37 82/76/36
f 83/77/37 85/79/38 86/80/38 84/78/37
f 85/79/38 87/81/39 88/82/39 86/80/38
f 87/81/39 89/83/40 90/84/40 88/82/39
f 89/83/40 91/85/41 92/86/41 90/84/40
f 91/85/41 93/87/42 94/88/42 92/86/41
f 93/87/42 95/89/43 96/90/43 94/88/42
f 95/89/43 97/91/44 98/92/44 96/90/43
f 97/91/44 99/93/45 100/94/45 98/92/44
f 99/93/45 101/95/46 102/96/46 100/94/45
f 101/95/46 103/97/47 104/98/47 102/96/46
f 103/97/47 105/99/48 106/100/48 104/98/47
f 105/99/48 107/101/49 108/102/49 106/100/48
f 107/101/49 109/103/50 110/104/50 108/102/49
f 109/103/50 47/1/19 48/4/19 110/104/50
